<svg width="24" height="24" viewBox="0 0 24 24" fill="none" xmlns="http://www.w3.org/2000/svg">
    <g clip-path="url(#clip0_604_4725)">
        <path d="M9 22C9.55228 22 10 21.5523 10 21C10 20.4477 9.55228 20 9 20C8.44772 20 8 20.4477 8 21C8 21.5523 8.44772 22 9 22Z"
              stroke="#102C56" stroke-width="2" stroke-linecap="round" stroke-linejoin="round"/>
        <path d="M20 22C20.5523 22 21 21.5523 21 21C21 20.4477 20.5523 20 20 20C19.4477 20 19 20.4477 19 21C19 21.5523 19.4477 22 20 22Z"
              stroke="#102C56" stroke-width="2" stroke-linecap="round" stroke-linejoin="round"/>
        <path d="M5 0C5.47661 0 5.88691 0.336378 5.98047 0.803711L6.82031 5H23C23.298 5 23.5805 5.13276 23.7705 5.3623C23.9605 5.59193 24.0382 5.89475 23.9824 6.1875L22.3818 14.5771L22.3809 14.585C22.2437 15.2755 21.8677 15.8954 21.3193 16.3369C20.776 16.7743 20.0975 17.0078 19.4004 16.999V17H9.67969V16.999C8.98256 17.0079 8.30414 16.7744 7.76074 16.3369C7.21258 15.8956 6.83656 15.2761 6.69922 14.5859L5.02344 6.21289C5.0214 6.20348 5.01935 6.19407 5.01758 6.18457L4.18066 2H1C0.447715 2 0 1.55228 0 1C0 0.447715 0.447715 0 1 0H5Z"
              fill="currentColor"/>
    </g>
    <defs>
        <clipPath id="clip0_604_4725">
            <rect width="24" height="24" fill="currentColor"/>
        </clipPath>
    </defs>
</svg>
