<svg width="21" height="19" viewBox="0 0 21 19" fill="none" xmlns="http://www.w3.org/2000/svg">
    <path d="M3.60622 1.715C2.66622 1.715 1.76622 1.715 0.886222 1.715C0.326222 1.715 -0.0537786 1.295 0.00622137 0.775C0.0462214 0.375 0.386221 0.035 0.786222 0.015C1.98622 -0.005 3.16622 -0.005 4.36622 0.015C4.74622 0.015 5.02622 0.295 5.12622 0.695C5.32622 1.515 5.54622 2.335 5.72622 3.155C5.78622 3.375 5.86622 3.435 6.08622 3.435C10.5662 3.435 15.0462 3.435 19.5262 3.435C20.3062 3.435 20.6662 3.895 20.4862 4.655C19.9062 6.995 19.3262 9.335 18.7262 11.675C18.4062 12.975 17.4462 13.715 16.0862 13.715C13.6262 13.715 11.1662 13.715 8.70622 13.715C7.34622 13.715 6.40622 12.975 6.06622 11.655C5.46622 9.275 4.86622 6.875 4.26622 4.495C4.04622 3.575 3.84622 2.655 3.60622 1.715ZM18.5862 5.175C14.4462 5.175 10.3462 5.175 6.24622 5.175C6.24622 5.215 6.24622 5.255 6.26622 5.275C6.76622 7.275 7.26622 9.275 7.76622 11.295C7.88622 11.775 8.18622 12.015 8.70622 12.015C11.1862 12.015 13.6662 12.015 16.1262 12.015C16.6662 12.015 16.9462 11.775 17.0862 11.275C17.4862 9.655 17.9062 8.035 18.3062 6.415C18.3862 6.015 18.4862 5.595 18.5862 5.175Z"
          fill="currentColor"/>

    <path d="M5.98633 17.1555C5.98633 16.2155 6.74633 15.4355 7.68633 15.4355C8.62633 15.4355 9.40633 16.2155 9.40633 17.1555C9.40633 18.0955 8.62633 18.8755 7.68633 18.8755C6.76633 18.8755 5.98633 18.1155 5.98633 17.1555Z"
          fill="currentColor"/>
    <path d="M15.4263 17.1751C15.4263 16.2351 16.1863 15.4551 17.1263 15.4551C18.0663 15.4551 18.8463 16.2151 18.8463 17.1551C18.8463 18.0951 18.0863 18.8751 17.1463 18.8751C16.1863 18.8751 15.4263 18.1151 15.4263 17.1751Z"
          fill="currentColor"/>
</svg>
