<svg width="214" height="390" viewBox="0 0 214 390" fill="none" xmlns="http://www.w3.org/2000/svg">
<path d="M208.349 339.046C204.175 335.604 200.948 335.663 200.948 335.663C200.948 335.663 199.705 323.084 188.752 316.467C168.651 304.362 123.031 305.668 123.031 305.668C123.031 305.668 119.923 302.197 115.719 301.514V257.812C115.719 255.646 113.972 253.895 111.811 253.895V236.035H112.61C115.245 236.035 117.377 233.898 117.377 231.258V209.065C118.413 208.769 119.183 207.849 119.183 206.721V205.95C125.666 205.535 135.968 204.882 146.862 204.348C164.861 203.428 178.153 200.105 185.051 196.545C191.919 192.985 194.998 191.264 197.366 184.44C199.735 177.616 195.235 169.19 195.235 169.19C195.235 169.19 193.015 124.597 193.015 120.622C193.015 116.646 193.696 113.501 194.228 110.831C194.761 108.161 196.212 107.063 197.426 107.063C198.639 107.063 202.784 107.063 204.294 107.063C205.833 107.063 206.573 105.906 206.573 105.224C206.573 104.541 206.573 103.532 206.573 102.761C206.573 101.99 206.129 100.773 205.034 100.625C203.968 100.477 193.103 99.7941 190.291 99.7941C187.449 99.7941 178.509 103.325 176.851 104.155C175.163 104.986 175.844 107.211 177.532 107.211C179.219 107.211 182.268 107.211 182.268 107.211L183.423 110.475L185.14 163.79C185.14 163.79 166.578 160.586 157.283 160.586H132.563L136.146 153.555C154.026 152.486 169.509 150.054 173.476 144.98C180.818 135.634 171.552 112.641 171.552 90.8044C171.552 68.9976 190.173 45.292 190.173 24.7314C190.173 4.17069 136.294 -0.25 104.44 -0.25C72.586 -0.25 18.7069 4.17069 18.7069 24.7314C18.7069 45.292 37.3277 68.9976 37.3277 90.8044C37.3277 112.611 28.0617 135.634 35.4035 144.98C39.4 150.054 54.8829 152.457 72.734 153.555L76.3161 160.586H51.5968C42.3012 160.586 23.7396 163.79 23.7396 163.79L25.4566 110.475L26.6111 107.211C26.6111 107.211 29.6603 107.211 31.3478 107.211C33.0352 107.211 33.7161 104.986 32.0287 104.155C30.3412 103.325 21.4009 99.7941 18.5885 99.7941C15.7465 99.7941 4.91149 100.477 3.84575 100.625C2.78001 100.773 2.30634 101.99 2.30634 102.761C2.30634 103.532 2.30634 104.512 2.30634 105.224C2.30634 105.936 3.07604 107.063 4.58584 107.063C6.12525 107.063 10.2402 107.063 11.4539 107.063C12.6677 107.063 14.1183 108.131 14.6512 110.831C15.184 113.501 15.8649 116.646 15.8649 120.622C15.8649 124.597 13.6446 169.19 13.6446 169.19C13.6446 169.19 9.14484 177.616 11.5132 184.44C13.8815 191.264 16.9307 192.985 23.8284 196.545C27.6177 198.503 33.3608 200.402 40.7618 201.856L27.6769 202.449C25.9895 202.538 24.5981 203.755 24.302 205.416L23.0587 212.537H22.4074C21.7857 212.537 21.1936 212.922 20.9272 213.486L14.5328 227.816C13.7631 229.567 14.7992 231.554 16.6642 231.911L24.6869 233.424C27.0256 233.869 29.1275 231.94 28.8906 229.567L27.5289 214.554C27.4697 213.961 26.996 213.486 26.4039 213.427L26.0191 213.397L26.6111 207.226C26.7296 206.069 27.6473 205.179 28.8018 205.119L54.2316 203.725C56.7183 203.962 59.2938 204.17 61.9878 204.289C75.7832 205.001 88.7201 205.831 93.9896 206.187V206.662C93.9896 207.79 94.7593 208.739 95.7954 209.006V231.198C95.7954 233.839 97.9269 235.975 100.562 235.975H101.361V253.836C99.1999 253.836 97.4533 255.586 97.4533 257.752V301.484C93.1903 302.108 89.9931 305.668 89.9931 305.668C89.9931 305.668 44.3735 304.362 24.2724 316.467C13.2894 323.084 12.0756 335.663 12.0756 335.663C12.0756 335.663 8.87841 335.604 4.67465 339.046C0.500506 342.487 -0.298799 346.344 0.0860514 347.442C0.322883 348.124 1.00377 348.629 1.47743 348.925C1.92149 353.227 5.56277 356.61 10.0034 356.61C13.023 356.61 15.6577 355.037 17.1971 352.664C21.2232 352.189 24.5981 347.976 24.5981 346.789C24.5981 345.513 24.5981 340.292 24.5981 338.215C24.5981 336.138 20.6312 335.634 20.6312 335.634C20.6312 335.634 21.8449 334.773 22.1706 334.298C22.5258 333.853 21.8745 331.124 21.8745 331.124C21.8745 331.124 26.8184 317.001 39.8737 316.645C49.8502 316.378 76.6713 319.049 76.6713 319.049C35.966 337.443 38.1567 364.887 38.1567 364.887L38.8376 365.332C37.7718 365.807 37.4758 366.994 37.4166 367.35C37.2389 367.32 37.0613 367.29 36.9133 367.261C33.5088 366.964 30.3708 371.326 29.8676 376.992C29.3643 382.659 31.703 387.495 35.1075 387.822C36.9429 387.97 38.7191 386.783 40.0217 384.736L41.4131 384.884C42.3012 387.614 43.959 389.483 46.0313 389.691C49.4357 389.987 52.5738 385.626 53.077 379.959C53.3139 377.17 52.8698 374.559 51.9521 372.601V365.362H51.4488V364.324C51.4488 355.245 63.0239 340.41 69.9216 336.286C73.5037 334.15 86.2334 328.661 93.7824 325.487C93.3383 326.733 93.1015 328.157 93.1015 329.7C93.1015 334.21 95.233 337.859 97.8381 337.859C99.7327 337.859 101.391 335.93 102.131 333.141L104.41 333.705C105.269 335.545 106.601 336.731 108.081 336.731C110.686 336.731 112.818 333.082 112.818 328.572C112.818 327.237 112.64 325.991 112.314 324.893L116.044 324.152C122.409 326.822 138.958 333.824 143.102 336.316C149.971 340.44 161.575 355.275 161.575 364.353V365.392H161.072V372.631C160.154 374.589 159.71 377.17 159.947 379.989C160.45 385.656 163.588 390.017 166.993 389.72C169.065 389.542 170.752 387.643 171.611 384.914L173.002 384.766C174.305 386.813 176.081 388.029 177.917 387.851C181.321 387.554 183.66 382.718 183.157 377.022C182.653 371.326 179.515 366.994 176.111 367.291C175.933 367.32 175.756 367.35 175.608 367.38C175.548 367.023 175.252 365.837 174.187 365.362L174.867 364.917C174.867 364.917 177.058 337.443 136.353 319.078C136.353 319.078 163.174 316.408 173.15 316.675C186.235 317.031 191.15 331.154 191.15 331.154C191.15 331.154 190.528 333.853 190.854 334.328C191.209 334.773 192.393 335.663 192.393 335.663C192.393 335.663 188.426 336.168 188.426 338.245C188.426 340.321 188.426 345.543 188.426 346.819C188.426 348.006 191.771 352.219 195.827 352.693C197.337 355.067 200.001 356.639 203.021 356.639C207.432 356.639 211.073 353.287 211.547 348.955C212.02 348.658 212.672 348.124 212.938 347.472C213.323 346.344 212.524 342.487 208.349 339.046ZM79.9277 153.881C88.128 154.207 96.5651 154.326 104.44 154.326C112.285 154.326 120.722 154.207 128.952 153.881L125.518 160.556H83.3322L79.9277 153.881Z" fill="#DEE2E6"/>
</svg>
