<svg width="17" height="18" viewBox="0 0 17 18" fill="none" xmlns="http://www.w3.org/2000/svg">
<path d="M16 8.30557C16.003 9.47878 15.7289 10.6361 15.2 11.6833C14.5728 12.9382 13.6086 13.9937 12.4155 14.7316C11.2223 15.4695 9.84731 15.8606 8.44443 15.8611C7.27122 15.8642 6.11387 15.5901 5.06666 15.0611L0 16.75L1.68889 11.6833C1.15994 10.6361 0.885829 9.47878 0.888887 8.30557C0.88943 6.90269 1.28054 5.52766 2.01841 4.33451C2.75629 3.14135 3.81178 2.17719 5.06666 1.55002C6.11387 1.02107 7.27122 0.746966 8.44443 0.750025H8.88887C10.7416 0.85224 12.4916 1.63426 13.8037 2.94634C15.1157 4.25843 15.8978 6.00837 16 7.86113V8.30557Z" stroke="currentColor" stroke-width="1.5" stroke-linecap="round" stroke-linejoin="round"/>
</svg>
