<svg width="23" height="19" viewBox="0 0 23 19" fill="none" xmlns="http://www.w3.org/2000/svg">
<path d="M22.4 6.66076C22.3 7.10076 22.24 7.56076 22.12 8.00076C21.76 9.26076 21.02 10.2808 20.1 11.2008C18.5 12.8008 16.8 14.2808 15.06 15.7408C14.02 16.6208 12.98 17.4808 11.94 18.3408C11.42 18.7608 10.96 18.7608 10.44 18.3408C8.06 16.3808 5.7 14.4208 3.46 12.3208C2.68 11.6008 1.9 10.8808 1.26 10.0008C0.58 9.06076 0.16 8.00076 0.0400001 6.82076C0.0400001 6.78076 0.02 6.74076 0 6.70076C0 6.34076 0 6.00076 0 5.64076C0.04 5.44076 0.06 5.22076 0.1 5.02076C1.04 0.360762 6.64 -1.59924 10.26 1.50076C10.58 1.78076 10.88 2.08076 11.22 2.42076C11.4 2.22076 11.56 2.04076 11.74 1.86076C13.16 0.480762 14.86 -0.139238 16.84 0.0607623C19.38 0.320762 21.52 2.12076 22.18 4.60076C22.28 4.94076 22.32 5.32076 22.4 5.66076C22.4 5.98076 22.4 6.32076 22.4 6.66076ZM11.2 16.3808C11.26 16.3408 11.32 16.3008 11.36 16.2608C12.94 14.9208 14.52 13.6008 16.08 12.2208C17.12 11.3008 18.16 10.3408 19.12 9.32076C20.24 8.14076 20.68 6.70076 20.28 5.10076C19.5 2.02076 15.6 0.920762 13.28 3.10076C12.84 3.52076 12.42 3.96076 12 4.38076C11.52 4.86076 10.92 4.86076 10.44 4.38076C10.04 3.98076 9.64 3.56076 9.24 3.18076C8 2.02076 6.56 1.68076 4.96 2.16076C2.38 2.96076 1.26 5.82076 2.52 8.26076C2.92 9.02076 3.5 9.62076 4.12 10.1808C6 11.8608 7.9 13.5408 9.8 15.2008C10.24 15.6208 10.72 16.0008 11.2 16.3808Z" fill="currentColor"/>
</svg>
