<svg width="80" height="80" viewBox="0 0 80 80" fill="none" xmlns="http://www.w3.org/2000/svg">
<rect x="0.5" y="0.5" width="79" height="79" rx="39.5" fill="#102C56"/>
<rect x="0.5" y="0.5" width="79" height="79" rx="39.5" stroke="white"/>
<path d="M40 44.2188C44.6527 44.2188 48.4375 40.434 48.4375 35.7812C48.4375 31.1285 44.6527 27.3438 40 27.3438C35.3473 27.3438 31.5625 31.1285 31.5625 35.7812C31.5625 40.434 35.3473 44.2188 40 44.2188ZM34.787 36.1933C35.3363 35.644 36.2263 35.644 36.7756 36.1933L38.5938 38.0115L43.2245 33.3807C43.7738 32.8314 44.6638 32.8314 45.2131 33.3807C45.7623 33.93 45.7623 34.8199 45.2131 35.3692L39.5881 40.9942C39.3134 41.2689 38.9536 41.4062 38.5938 41.4062C38.2341 41.4062 37.8742 41.2689 37.5996 40.9942L34.7871 38.1817C34.2377 37.6324 34.2377 36.7426 34.787 36.1933Z" fill="#F8F9FA"/>
<path d="M20.7245 34.7869C20.1752 35.3361 20.1752 36.2261 20.7245 36.7754L23.4395 39.4904C23.7937 39.8447 23.9325 40.3652 23.8034 40.8486L22.8105 44.5578C22.61 45.3076 23.0549 46.0793 23.8047 46.2799L27.5139 47.2741C27.9973 47.4032 28.3777 47.7836 28.5068 48.2683L29.5011 51.9762C29.7029 52.7274 30.4789 53.1737 31.2231 52.9704L34.9311 51.9775C35.4213 51.8484 35.9363 51.9858 36.2906 52.3415L39.0056 55.0565C39.2803 55.3311 39.6401 55.4685 39.9998 55.4685C40.3596 55.4685 40.7195 55.3311 40.9941 55.0565L43.7091 52.3415C44.0606 51.9885 44.5811 51.8498 45.0672 51.9775L48.7764 52.9704C49.5331 53.1751 50.298 52.7273 50.4985 51.9762L51.4927 48.267C51.6218 47.7836 52.0023 47.4032 52.487 47.2741L56.1949 46.2799C56.9447 46.0793 57.3896 45.3076 57.1891 44.5578L56.1962 40.8499C56.0671 40.3651 56.2058 39.8446 56.5601 39.4903L59.2751 36.7753C59.8244 36.226 59.8244 35.3361 59.2751 34.7868L56.5601 32.0718C56.2058 31.7175 56.0671 31.197 56.1962 30.7136L57.1891 27.0044C57.3896 26.2546 56.9447 25.4828 56.1949 25.2823L52.4856 24.2881C52.0023 24.159 51.6218 23.7786 51.4927 23.2939L50.4985 19.586C50.2967 18.8347 49.5317 18.3953 48.7764 18.5917L45.0685 19.5846C44.5742 19.7082 44.0605 19.575 43.709 19.2207L40.994 16.412C40.4447 15.8627 39.5547 15.8627 39.0054 16.412L36.2904 19.2207C35.9361 19.575 35.4171 19.7096 34.9323 19.5846L31.2231 18.5917C30.4801 18.3981 29.7028 18.8348 29.501 19.586L28.5067 23.2952C28.3776 23.7786 27.9972 24.159 27.5125 24.2881L23.8047 25.2823C23.0549 25.4828 22.61 26.2546 22.8105 27.0044L23.8034 30.7123C23.9325 31.1971 23.7937 31.7176 23.4395 32.0719L20.7245 34.7869ZM39.9999 24.5311C46.2031 24.5311 51.2499 29.5779 51.2499 35.7811C51.2499 41.9842 46.2031 47.0311 39.9999 47.0311C33.7968 47.0311 28.7499 41.9842 28.7499 35.7811C28.7499 29.5779 33.7968 24.5311 39.9999 24.5311Z" fill="#F8F9FA"/>
<path d="M53.9993 49.7802L53.2152 52.704C52.7235 54.5456 51.0509 55.8323 49.1475 55.8323C48.7753 55.8323 48.4032 55.7829 48.042 55.6854L45.1237 54.904L43.8926 56.1351L47.9733 63.2965C48.2177 63.7181 48.6628 63.9845 49.1489 63.9996C49.164 63.9996 49.1777 63.9996 49.1914 63.9996C49.6624 63.9996 50.1046 63.7634 50.3655 63.368L53.4418 58.6132L59.0174 58.2782C59.5049 58.2493 59.9415 57.9706 60.1723 57.5407C60.403 57.1123 60.3947 56.5932 60.1516 56.1716L56.132 49.209L53.9993 49.7802Z" fill="#F8F9FA"/>
<path d="M19.8277 57.5404C20.0584 57.9703 20.4951 58.2491 20.9826 58.2779L26.5582 58.6129L29.6344 63.3676C29.8953 63.7632 30.3375 63.9993 30.8085 63.9993C30.8222 63.9993 30.836 63.9993 30.8511 63.9993C31.3373 63.9842 31.7822 63.7178 32.0266 63.2962L36.1074 56.1348L34.8763 54.9037L31.9512 55.6865C31.6037 55.7813 31.2315 55.8321 30.858 55.8321C28.9546 55.8321 27.2792 54.5467 26.7849 52.7065L26.0008 49.78L23.8684 49.208L19.8483 56.1713C19.6052 56.5929 19.597 57.112 19.8277 57.5404Z" fill="#F8F9FA"/>
</svg>
