<svg width="80" height="80" viewBox="0 0 80 80" fill="none" xmlns="http://www.w3.org/2000/svg">
<rect x="0.5" y="0.5" width="79" height="79" rx="39.5" fill="#102C56"/>
<rect x="0.5" y="0.5" width="79" height="79" rx="39.5" stroke="white"/>
<g clip-path="url(#clip0_511_12956)">
<path d="M26.4312 22.6504L17.7718 27.2463C17.6235 27.324 17.4834 27.4125 17.3511 27.5094L39.494 39.0559L48.7663 34.4696L26.4312 22.6504Z" fill="#F8F9FA"/>
<path d="M63.9958 30.0742L52.9181 35.5533V41.7261C52.9181 42.5025 52.2886 43.1319 51.5123 43.1319C50.7359 43.1319 50.1065 42.5025 50.1065 41.7261V36.944L40.8828 41.5062V63.8463C40.9117 63.8329 40.9409 63.8206 40.9695 63.8063L62.1741 53.0621C63.3006 52.4988 64.0002 51.3671 64.0002 50.1072V30.1984C64.0002 30.1567 63.9973 30.1156 63.9958 30.0742Z" fill="#F8F9FA"/>
<path d="M62.174 27.2435L40.9782 16.5038L40.9694 16.4994C40.0256 16.0295 38.9042 16.04 37.9692 16.5275L29.4321 21.0584L51.8731 32.9336L62.7049 27.5761C62.5405 27.4508 62.364 27.3384 62.174 27.2435Z" fill="#F8F9FA"/>
<path d="M16.0067 29.9795C16.0029 30.0439 16 30.1084 16 30.1735V50.1311C16 51.365 16.6787 52.4859 17.7715 53.058L37.9601 63.7729L37.9692 63.7777C38.0028 63.7952 38.0371 63.8107 38.0711 63.8269V41.4851L16.0067 29.9795Z" fill="#F8F9FA"/>
</g>
<defs>
<clipPath id="clip0_511_12956">
<rect width="48" height="48" fill="white" transform="translate(16 16)"/>
</clipPath>
</defs>
</svg>
