<svg width="80" height="81" viewBox="0 0 80 81" fill="none" xmlns="http://www.w3.org/2000/svg">
<rect x="0.5" y="0.5" width="79" height="80" rx="39.5" fill="#102C56"/>
<rect x="0.5" y="0.5" width="79" height="80" rx="39.5" stroke="white"/>
<g clip-path="url(#clip0_511_12966)">
<g clip-path="url(#clip1_511_12966)">
<path d="M34.4684 28.9838H52.5625V23.5312C52.5625 19.6542 49.4083 16.5 45.5312 16.5H23.0312C19.1542 16.5 16 19.6542 16 23.5312V34.7809C16 36.5574 16.6764 38.2654 17.875 39.5596V47.7975C17.875 48.3508 18.1998 48.8529 18.7048 49.08C18.8894 49.1631 19.0861 49.2037 19.2809 49.2037C19.6185 49.2037 19.9521 49.0822 20.2147 48.8492L24.6246 44.9355V38.8275C24.6246 33.3995 29.0404 28.9838 34.4684 28.9838Z" fill="#F8F9FA"/>
<path d="M56.9683 31.7959H34.4683C30.5912 31.7959 27.437 34.9501 27.437 38.8271V50.0768C27.437 53.9539 30.5912 57.108 34.4683 57.108H51.8549L59.7848 64.1451C60.0474 64.3781 60.381 64.4996 60.7186 64.4996C60.9135 64.4996 61.1101 64.459 61.2947 64.3759C61.7997 64.1492 62.1245 63.6471 62.1245 63.0934V54.8555C63.3231 53.5613 63.9995 51.8536 63.9995 50.0768V38.8271C63.9995 34.9501 60.8453 31.7959 56.9683 31.7959ZM54.1803 44.5638C54.1803 44.6499 54.1792 44.736 54.1763 44.822C55.287 46.1426 55.5151 48.0714 54.6036 49.6501C53.8525 50.9513 52.4518 51.7595 50.9489 51.7595C50.6991 51.7595 50.4504 51.7372 50.2062 51.6932C50.0608 51.7833 49.9128 51.869 49.7623 51.9503C49.1746 53.5734 47.6174 54.7361 45.7941 54.7361C43.9703 54.7361 42.4136 53.5734 41.8258 51.9503C41.6753 51.869 41.5273 51.7833 41.382 51.6932C41.1373 51.7372 40.889 51.7595 40.6393 51.7595C39.136 51.7595 37.7356 50.9513 36.9841 49.6498C36.073 48.0714 36.3011 46.1426 37.4115 44.822C37.4089 44.736 37.4075 44.6499 37.4075 44.5635C37.4075 44.4774 37.4089 44.3914 37.4115 44.3053C36.3008 42.9847 36.073 41.0559 36.9841 39.4772C37.7356 38.176 39.136 37.3678 40.6393 37.3678C40.889 37.3678 41.1373 37.3901 41.382 37.4341C41.5273 37.344 41.6753 37.2583 41.8258 37.1774C42.4136 35.554 43.9703 34.3912 45.7941 34.3912C47.6174 34.3912 49.1746 35.554 49.7623 37.1774C49.9128 37.2583 50.0608 37.344 50.2062 37.4341C50.4504 37.3901 50.6991 37.3678 50.9489 37.3678C52.4521 37.3678 53.8525 38.176 54.604 39.4775C55.5151 41.0559 55.287 42.9847 54.1763 44.3053C54.1792 44.3914 54.1803 44.4774 54.1803 44.5638Z" fill="#F8F9FA"/>
<path d="M52.168 40.8842C51.7798 40.2114 50.9199 39.9811 50.2472 40.3693L49.759 40.6512C49.0647 39.9478 48.1854 39.427 47.2003 39.1703V38.6104C47.2003 37.8336 46.5708 37.2041 45.7941 37.2041C45.0173 37.2041 44.3878 37.8336 44.3878 38.6104V39.1703C43.4031 39.427 42.5238 39.9478 41.8291 40.6512L41.341 40.3693C40.6686 39.9807 39.8084 40.2114 39.4202 40.8842C39.0316 41.5565 39.2623 42.4167 39.9347 42.8049L40.4207 43.0854C40.291 43.5568 40.22 44.0522 40.22 44.5642C40.22 45.0762 40.291 45.5717 40.4207 46.0426L39.9347 46.3231C39.2623 46.7117 39.0316 47.5715 39.4202 48.2443C39.6806 48.6954 40.1533 48.9474 40.6393 48.9474C40.8777 48.9474 41.1198 48.8866 41.341 48.7588L41.8291 48.4772C42.5235 49.1807 43.4031 49.701 44.3878 49.9581V50.5181C44.3878 51.2948 45.0173 51.9243 45.7941 51.9243C46.5708 51.9243 47.2003 51.2948 47.2003 50.5181V49.9581C48.1854 49.701 49.0647 49.1807 49.759 48.4772L50.2472 48.7588C50.4688 48.8866 50.7105 48.9474 50.9489 48.9474C51.4352 48.9474 51.9076 48.6954 52.168 48.2443C52.5565 47.5715 52.3262 46.7117 51.6535 46.3231L51.1675 46.0426C51.2971 45.5717 51.3682 45.0762 51.3682 44.5642C51.3682 44.0522 51.2971 43.5568 51.1675 43.0854L51.6535 42.8049C52.3262 42.4167 52.5565 41.5565 52.168 40.8842ZM45.7941 47.3254C44.2714 47.3254 43.0325 46.0869 43.0325 44.5642C43.0325 43.0415 44.2714 41.8026 45.7941 41.8026C47.3168 41.8026 48.5557 43.0415 48.5557 44.5642C48.5557 46.0869 47.3168 47.3254 45.7941 47.3254Z" fill="#F8F9FA"/>
</g>
</g>
<defs>
<clipPath id="clip0_511_12966">
<rect width="48" height="49" fill="white" transform="translate(16 16)"/>
</clipPath>
<clipPath id="clip1_511_12966">
<rect width="48" height="48" fill="white" transform="translate(16 16.5)"/>
</clipPath>
</defs>
</svg>
