<svg width="41" height="41" viewBox="0 0 41 41" fill="none" xmlns="http://www.w3.org/2000/svg">
<path fill-rule="evenodd" clip-rule="evenodd" d="M10.0833 0C4.51445 0 0 4.51445 0 10.0833V30.25C0 35.8189 4.51445 40.3333 10.0833 40.3333H30.25C35.8189 40.3333 40.3333 35.8189 40.3333 30.25V10.0833C40.3333 4.51445 35.8189 0 30.25 0H10.0833ZM20.1667 12.8333C16.1166 12.8333 12.8333 16.1166 12.8333 20.1667C12.8333 24.2167 16.1166 27.5 20.1667 27.5C24.2167 27.5 27.5 24.2167 27.5 20.1667C27.5 16.1166 24.2167 12.8333 20.1667 12.8333ZM9.16667 20.1667C9.16667 14.0915 14.0915 9.16667 20.1667 9.16667C26.2418 9.16667 31.1667 14.0915 31.1667 20.1667C31.1667 26.2418 26.2418 31.1667 20.1667 31.1667C14.0915 31.1667 9.16667 26.2418 9.16667 20.1667ZM31.1667 5.5C29.1416 5.5 27.5 7.14162 27.5 9.16667C27.5 11.1917 29.1416 12.8333 31.1667 12.8333C33.1918 12.8333 34.8333 11.1917 34.8333 9.16667C34.8333 7.14162 33.1918 5.5 31.1667 5.5Z" fill="currentColor"/>
</svg>
