<svg width="33" height="52" viewBox="0 0 33 52" fill="none" xmlns="http://www.w3.org/2000/svg">
<path d="M27.6575 4.79801C24.7 1.91272 20.7025 0.129676 16.25 0.129676C7.28001 0.129676 0 7.39153 0 16.3392C0 25.2868 7.28001 32.5487 16.25 32.5487C22.165 32.5487 27.365 29.3716 30.1925 24.6384C31.6225 22.2718 32.435 19.5162 32.5 16.5661C32.5 16.5013 32.5 16.404 32.5 16.3392V0C30.5175 1.32918 28.86 2.75561 27.6575 4.79801ZM25.935 17.409C25.415 22.2718 21.255 26.0649 16.25 26.0649C10.855 26.0649 6.50001 21.7207 6.50001 16.3392C6.50001 10.9576 10.855 6.61347 16.25 6.61347C20.41 6.61347 23.9525 9.20699 25.35 12.8703C25.7725 13.9402 26 15.1397 26 16.3392C26 16.6958 25.9675 17.0848 25.935 17.409Z" fill="#102C56"/>
<path d="M25.4467 39.0322C24.1142 42.8252 20.5067 45.516 16.2492 45.516C11.9917 45.516 8.38423 42.8252 7.05172 39.0322H0.324219C1.81922 46.4238 8.38423 51.9998 16.2492 51.9998C24.1142 51.9998 30.6792 46.4238 32.1742 39.0322H25.4467Z" fill="#102C56"/>
</svg>
