<svg width="1323" height="621" viewBox="0 0 1323 621" fill="none" xmlns="http://www.w3.org/2000/svg">
<path d="M316.955 29.3008V324.728H373.967V402.768H316.955V494.765H227.253V402.768H0.5V332.16L212.113 29.3008H316.955ZM232.169 125.702L99.3564 323.949L98.835 324.728H233.084V124.336L232.169 125.702Z" fill="#102C56" stroke="#102C56"/>
<path d="M1232.98 29.3008V324.728H1289.99V402.768H1232.98V494.765H1143.28V402.768H916.526V332.16L1128.14 29.3008H1232.98ZM1148.2 125.702L1015.38 323.949L1014.86 324.728H1149.11V124.336L1148.2 125.702Z" fill="#102C56" stroke="#102C56"/>
<path d="M655.604 0.5C774.979 0.500181 871.752 97.2737 871.752 216.649C871.752 336.025 774.979 432.798 655.604 432.798C536.228 432.798 439.454 336.025 439.454 216.649C439.454 97.2736 536.228 0.5 655.604 0.5Z" fill="#7692BC" stroke="#102C56"/>
<path d="M583.912 418.688L583.386 418.005C577.605 372.856 585.541 331.545 585.541 331.545C585.541 331.545 593.53 351.622 580.443 311.993C567.409 272.363 575.135 230.105 573.663 225.743C572.191 221.381 565.411 186.586 570.037 182.96C577.185 177.336 607.248 198.412 607.248 198.412C635.525 183.328 689.136 184.063 689.136 184.063C689.136 184.063 713.313 154 719.567 156.154C725.875 158.309 727.924 179.333 728.397 197.466C728.503 202.039 762.088 309.785 762.088 309.785C804.503 288.393 822.531 347.102 823.635 350.886C823.635 350.886 744.691 461.208 585.647 422.104C576.659 419.897 583.86 399.661 583.86 399.661" fill="white"/>
<path d="M583.912 418.688L583.386 418.005C577.605 372.856 585.541 331.545 585.541 331.545C585.541 331.545 593.53 351.622 580.443 311.993C567.409 272.363 575.135 230.105 573.663 225.743C572.191 221.38 565.411 186.586 570.037 182.96C577.185 177.336 607.248 198.412 607.248 198.412C635.525 183.328 689.136 184.063 689.136 184.063C689.136 184.063 713.313 154 719.567 156.154C725.875 158.309 727.924 179.333 728.397 197.466C728.503 202.039 762.088 309.785 762.088 309.785C804.503 288.393 822.531 347.102 823.635 350.886C823.635 350.886 744.691 461.208 585.647 422.104C576.659 419.897 583.86 399.661 583.86 399.661" stroke="#102C56" stroke-width="5.4" stroke-miterlimit="10"/>
<path d="M585.331 425.73C585.331 425.73 596.946 438.029 607.773 431.512C618.653 424.994 615.395 401.08 603.411 386.942C591.48 372.803 576.974 366.286 555.582 373.907C534.191 381.528 540.34 414.483 547.961 418.477C555.582 422.472 561.732 417.741 561.732 417.741C561.732 417.741 574.083 433.351 585.331 425.73Z" fill="white" stroke="#102C56" stroke-width="5.4" stroke-miterlimit="10" stroke-linecap="round" stroke-linejoin="round"/>
<path d="M576.62 190.777C576.892 190.75 577.24 190.774 577.667 190.857C578.521 191.023 579.605 191.407 580.846 191.965C583.321 193.079 586.328 194.839 589.194 196.734C592.059 198.628 594.764 200.643 596.636 202.26C597.575 203.072 598.286 203.768 598.703 204.288C598.88 204.508 598.983 204.672 599.034 204.783C596.735 206.432 592.19 209.495 587.972 211.844C585.815 213.046 583.767 214.047 582.157 214.583C581.349 214.853 580.685 214.993 580.19 214.998C579.687 215.003 579.475 214.871 579.384 214.738L579.383 214.737C579.226 214.508 579.007 213.998 578.753 213.211C578.504 212.443 578.237 211.463 577.966 210.338C577.424 208.091 576.875 205.291 576.443 202.507C576.011 199.722 575.699 196.966 575.628 194.804C575.592 193.721 575.618 192.805 575.713 192.116C575.761 191.771 575.824 191.498 575.897 191.296C575.974 191.087 576.046 190.997 576.084 190.965L576.085 190.966L576.093 190.958C576.187 190.877 576.349 190.804 576.62 190.777Z" fill="#102C56" stroke="#102C56"/>
<path d="M718.436 164.905C718.503 164.909 718.609 164.944 718.756 165.09C718.905 165.238 719.068 165.476 719.235 165.815C719.569 166.494 719.873 167.484 720.143 168.708C720.679 171.149 721.05 174.409 721.27 177.697C721.489 180.982 721.556 184.275 721.49 186.773C721.457 188.024 721.391 189.065 721.296 189.803C721.248 190.174 721.196 190.451 721.143 190.634C721.133 190.666 721.123 190.692 721.115 190.714C721.079 190.719 721.034 190.727 720.982 190.731C720.833 190.744 720.638 190.749 720.397 190.745C719.917 190.737 719.286 190.692 718.541 190.61C717.053 190.447 715.138 190.135 713.13 189.673C711.12 189.21 709.028 188.6 707.177 187.843C705.366 187.102 703.827 186.236 702.816 185.26C702.818 185.242 702.818 185.219 702.823 185.191C702.851 185.032 702.925 184.793 703.055 184.475C703.311 183.843 703.749 182.982 704.33 181.964C705.49 179.931 707.187 177.322 709.035 174.75C710.884 172.177 712.876 169.657 714.623 167.799C715.498 166.868 716.3 166.116 716.983 165.607C717.325 165.353 717.625 165.168 717.881 165.051C718.142 164.932 718.323 164.899 718.436 164.905Z" fill="#102C56" stroke="#102C56"/>
<path d="M644.445 258.105C646.282 257.767 648.172 257.656 649.74 257.813C650.524 257.892 651.212 258.038 651.768 258.246C652.257 258.43 652.618 258.653 652.856 258.901L652.951 259.01C653.426 259.635 653.569 260.657 653.355 261.946C653.144 263.221 652.6 264.66 651.837 266.007C651.074 267.354 650.109 268.581 649.081 269.446C648.045 270.319 647.004 270.775 646.072 270.709C643.984 270.562 641.725 269.395 640.027 267.729C638.432 266.163 637.409 264.235 637.425 262.415L637.442 262.053C637.511 261.267 638.223 260.454 639.556 259.72C640.856 259.004 642.607 258.444 644.445 258.105Z" fill="#102C56" stroke="#102C56"/>
<path d="M672.803 238.142C677.736 236.363 683.363 237.22 687.889 239.633C688.004 239.7 688.056 239.825 687.998 239.98C687.973 240.026 687.947 240.047 687.919 240.059C687.883 240.074 687.825 240.085 687.746 240.072C685.465 239.577 683.214 239.264 681 239.271L680.556 239.277C672.974 239.387 669.167 243.216 664.386 248.208C663.914 248.679 663.453 249.141 662.941 249.601L662.932 249.61L662.922 249.62C662.921 249.621 662.919 249.621 662.918 249.622L662.898 249.612C662.896 249.61 662.895 249.608 662.894 249.606V249.604C662.882 249.57 662.867 249.53 662.852 249.49C662.82 249.408 662.779 249.307 662.739 249.21C662.704 249.124 662.667 249.039 662.639 248.972C663.6 243.907 667.965 239.926 672.804 238.143L672.803 238.142Z" fill="#102C56" stroke="#102C56"/>
<path d="M624.067 257.804C622.964 260.327 614.817 263.428 611.768 265.215C611.085 265.635 610.349 266.056 609.613 266.529C604.936 269.314 600.048 272.258 597.998 271.049C595.633 269.577 590.587 254.755 601.625 247.87C605.934 245.19 610.454 245.715 614.291 247.555C615.342 248.028 616.394 248.659 617.34 249.289C618.917 250.393 620.283 251.654 621.439 252.863C623.384 254.966 624.435 256.963 624.067 257.804Z" stroke="#102C56" stroke-width="5.4" stroke-miterlimit="10" stroke-linecap="round" stroke-linejoin="round"/>
<mask id="path-12-inside-1_1156_22397" fill="white">
<path d="M617.34 249.236C618.654 250.445 620.02 251.654 621.439 252.81C623.384 254.965 624.435 257.015 624.067 257.804C622.964 260.326 614.817 263.427 611.768 265.214C611.085 265.635 610.349 266.055 609.614 266.528C607.721 265.214 606.25 263.112 606.145 259.801C605.987 252.075 611.979 248.553 614.291 247.502"/>
</mask>
<path d="M617.34 249.236C618.654 250.445 620.02 251.654 621.439 252.81C623.384 254.965 624.435 257.015 624.067 257.804C622.964 260.326 614.817 263.427 611.768 265.214C611.085 265.635 610.349 266.055 609.614 266.528C607.721 265.214 606.25 263.112 606.145 259.801C605.987 252.075 611.979 248.553 614.291 247.502" fill="#102C56"/>
<path d="M621.439 252.81L622.182 252.14L622.13 252.084L622.071 252.035L621.439 252.81ZM624.067 257.804L623.161 257.381L623.156 257.392L623.151 257.403L624.067 257.804ZM611.768 265.214L611.263 264.352L611.253 264.357L611.244 264.363L611.768 265.214ZM609.614 266.528L609.043 267.35L609.592 267.731L610.154 267.37L609.614 266.528ZM606.145 259.801L605.145 259.821L605.145 259.833L606.145 259.801ZM617.34 249.236L616.663 249.972C617.986 251.19 619.368 252.413 620.808 253.586L621.439 252.81L622.071 252.035C620.672 250.895 619.322 249.701 618.017 248.5L617.34 249.236ZM621.439 252.81L620.697 253.48C621.629 254.514 622.323 255.496 622.734 256.282C622.941 256.678 623.059 256.992 623.111 257.217C623.169 257.47 623.114 257.481 623.161 257.381L624.067 257.804L624.974 258.226C625.204 257.732 625.157 257.191 625.06 256.77C624.957 256.322 624.76 255.842 624.507 255.356C623.998 254.382 623.194 253.262 622.182 252.14L621.439 252.81ZM624.067 257.804L623.151 257.403C622.997 257.756 622.494 258.288 621.537 258.954C620.626 259.589 619.455 260.245 618.19 260.896C616.927 261.545 615.605 262.171 614.388 262.756C613.187 263.333 612.067 263.88 611.263 264.352L611.768 265.214L612.274 266.077C612.994 265.655 614.036 265.144 615.254 264.559C616.456 263.981 617.811 263.339 619.104 262.674C620.395 262.011 621.659 261.307 622.68 260.595C623.657 259.915 624.586 259.112 624.983 258.204L624.067 257.804ZM611.768 265.214L611.244 264.363C610.605 264.756 609.812 265.212 609.073 265.687L609.614 266.528L610.154 267.37C610.886 266.899 611.565 266.514 612.293 266.066L611.768 265.214ZM609.614 266.528L610.184 265.707C608.536 264.563 607.239 262.746 607.144 259.769L606.145 259.801L605.145 259.833C605.261 263.478 606.906 265.866 609.043 267.35L609.614 266.528ZM606.145 259.801L607.144 259.78C607 252.686 612.483 249.422 614.705 248.412L614.291 247.502L613.878 246.592C611.474 247.684 604.974 251.463 605.145 259.821L606.145 259.801Z" fill="#102C56" mask="url(#path-12-inside-1_1156_22397)"/>
<path d="M649.296 286.764L647.667 273.94" stroke="#102C56" stroke-width="5.4" stroke-miterlimit="10" stroke-linecap="round" stroke-linejoin="round"/>
<path d="M673.227 279.507C673.252 279.835 673.274 280.225 673.278 280.666C673.291 282.114 673.134 284.107 672.457 286.287C671.108 290.624 667.684 295.757 659.269 298.803H659.268C648.933 302.559 642.457 300.262 638.565 297.116C636.604 295.531 635.275 293.712 634.437 292.286C634.03 291.593 633.739 290.995 633.549 290.566C633.81 290.578 634.129 290.59 634.497 290.597C635.576 290.616 637.081 290.598 638.781 290.448C642.109 290.155 646.255 289.351 649.417 287.28C649.421 287.281 649.425 287.282 649.429 287.282C649.556 287.296 649.741 287.315 649.979 287.334C650.454 287.373 651.139 287.416 651.985 287.434C653.675 287.469 656.011 287.404 658.596 287.001C663.44 286.246 669.226 284.29 673.227 279.507Z" fill="#102C56" stroke="#102C56"/>
<path d="M688.242 261.588C688.242 261.588 719.777 239.461 742.956 228.633" stroke="#102C56" stroke-width="5.4" stroke-miterlimit="10" stroke-linecap="round" stroke-linejoin="round"/>
<path d="M696.179 267.37C696.179 267.37 741.853 266.266 753.784 267.37" stroke="#102C56" stroke-width="5.4" stroke-miterlimit="10" stroke-linecap="round" stroke-linejoin="round"/>
<path d="M592.584 287.342C592.584 287.342 564.307 300.377 556.739 306.158" stroke="#102C56" stroke-width="5.4" stroke-miterlimit="10" stroke-linecap="round" stroke-linejoin="round"/>
<path d="M594.004 276.463C594.004 276.463 559.21 269.578 549.802 270.681" stroke="#102C56" stroke-width="5.4" stroke-miterlimit="10" stroke-linecap="round" stroke-linejoin="round"/>
<path d="M608.142 233.68L619.022 238.41" stroke="#102C56" stroke-width="5.4" stroke-miterlimit="10" stroke-linecap="round" stroke-linejoin="round"/>
<path d="M659.282 239.04L667.901 230.894" stroke="#102C56" stroke-width="5.4" stroke-miterlimit="10" stroke-linecap="round" stroke-linejoin="round"/>
<path d="M620.809 322.084C620.809 322.084 652.397 283.926 692.289 294.543C771.286 315.567 777.803 523.438 841.82 574.263C887.494 610.477 957.03 609.793 957.03 609.793H1323" stroke="#102C56" stroke-width="21.6" stroke-miterlimit="10"/>
<path d="M668.17 286.508C668.066 287.044 667.936 287.611 667.784 288.22C667.611 288.878 667.411 289.488 667.206 290.055C667.015 289.842 666.81 289.621 666.583 289.396L666.086 288.92C665.658 288.521 665.229 288.167 664.816 287.857C665.257 287.761 665.733 287.628 666.234 287.443L666.237 287.442C667.005 287.155 667.641 286.827 668.17 286.508Z" fill="white" stroke="#102C56"/>
<path d="M23 609.793H388.97C388.97 609.793 511.17 615.837 514.324 573.58C516.479 544.619 386.762 549.665 383.188 582.988C379.562 616.31 586.067 600.385 586.067 600.385" stroke="#102C56" stroke-width="21.6" stroke-miterlimit="10"/>
<path d="M762.14 309.785C762.14 309.785 717.202 346.734 720.618 360.242C723.982 373.749 732.917 370.385 732.917 370.385C732.917 370.385 733.18 381.002 746.215 380.529C746.215 380.529 765.031 415.061 790.89 364.814" fill="white"/>
<path d="M762.14 309.785C762.14 309.785 717.202 346.734 720.618 360.242C723.982 373.749 732.917 370.385 732.917 370.385C732.917 370.385 733.18 381.002 746.215 380.529C746.215 380.529 765.031 415.061 790.89 364.814" stroke="#102C56" stroke-width="5.4" stroke-miterlimit="10" stroke-linecap="round" stroke-linejoin="round"/>
<path d="M759.537 358.865H759.538L759.544 358.86C759.566 358.843 759.581 358.839 759.587 358.837C759.593 358.836 759.597 358.837 759.602 358.837C759.613 358.839 759.637 358.848 759.662 358.876C759.687 358.905 759.696 358.934 759.697 358.952C759.698 358.959 759.696 358.967 759.693 358.974C759.691 358.981 759.684 358.995 759.667 359.014C756.289 362.762 753.164 366.784 750.619 371.237C749.717 372.67 748.902 374.097 747.925 375.436C747.757 375.639 747.499 375.675 747.261 375.56C747.023 375.445 746.901 375.226 746.964 374.975L746.965 374.969C747.649 372.08 749.553 368.917 751.93 366.026C754.301 363.142 757.106 360.572 759.537 358.865Z" fill="#102C56" stroke="#102C56"/>
<path d="M741.645 353.388C741.663 353.397 741.67 353.406 741.671 353.407C741.713 353.459 741.725 353.503 741.727 353.538C741.728 353.574 741.719 353.622 741.686 353.677C740.017 356.284 738.211 358.942 736.83 361.756L736.828 361.76C735.507 364.508 734.328 367.447 733.843 370.511C733.638 371.707 731.944 371.539 731.995 370.329C732.746 364.807 735.571 359.646 739.328 355.465L739.695 355.063C740.26 354.499 740.879 353.933 741.452 353.412L741.461 353.404L741.469 353.395C741.479 353.385 741.511 353.365 741.571 353.37C741.599 353.372 741.625 353.379 741.645 353.388Z" fill="#102C56" stroke="#102C56"/>
<path d="M618.968 317.013C619.424 317.013 619.86 317.103 620.241 317.313L626.158 321.032C626.694 321.39 627.078 321.915 627.204 322.504C627.338 323.13 627.243 323.776 626.909 324.278L626.904 324.284C625.187 326.953 622.039 332.446 619.314 337.278C617.951 339.696 616.69 341.954 615.765 343.617C615.302 344.448 614.922 345.132 614.655 345.611C614.522 345.85 614.417 346.039 614.344 346.17C614.261 346.319 614.234 346.364 614.242 346.352L614.225 346.378L614.211 346.406C613.833 347.161 613.023 347.601 612.188 347.601C611.861 347.601 611.58 347.553 611.36 347.444L611.339 347.433L611.315 347.424L608.846 346.478L608.835 346.474L608.624 346.384C608.159 346.154 607.801 345.748 607.562 345.247C607.513 345.054 607.465 344.861 607.417 344.668L607.186 343.742L606.556 344.46L606.199 344.867C605.699 345.363 605.089 345.657 604.409 345.657H604.304C603.633 345.657 602.985 345.32 602.545 344.748L599.449 340.708C598.834 339.871 598.806 338.702 599.44 337.899L599.448 337.889L601.498 335.157L601.784 334.775L601.417 334.471L599.577 332.947C599.015 332.469 598.716 331.781 598.759 331.049C598.802 330.306 599.198 329.615 599.792 329.233L599.797 329.229L617.667 317.403L617.669 317.402C618.054 317.145 618.535 317.013 618.968 317.013ZM618.691 318.935L600.874 330.76L600.323 331.126L600.825 331.557L602.665 333.133L602.979 333.403L603.302 333.145L608.516 328.986L600.909 339.076L600.681 339.378L600.911 339.68L604.013 343.728L604.384 344.212L604.786 343.752L613.9 333.31L609.258 344.173L609.054 344.651L609.539 344.836L612.009 345.783L612.417 345.939L612.627 345.555L612.628 345.552C612.629 345.55 612.632 345.547 612.634 345.543C612.638 345.535 612.645 345.523 612.653 345.507C612.671 345.475 612.696 345.428 612.73 345.366C612.799 345.241 612.899 345.058 613.028 344.823C613.287 344.353 613.66 343.675 614.118 342.845C615.035 341.185 616.294 338.914 617.663 336.474C620.405 331.589 623.576 326.046 625.326 323.356L625.604 322.93L625.174 322.66L619.234 318.928L618.961 318.756L618.691 318.935Z" fill="#102C56" stroke="#102C56"/>
<path d="M604.358 590.162C604.768 590.162 605.132 590.433 605.235 590.822C605.273 591.02 605.265 591.225 605.208 591.368L604.899 592.141L605.727 592.05L612.901 591.265H613.031C613.25 591.265 613.496 591.342 613.656 591.465H613.657C613.855 591.63 613.95 591.856 613.95 592.08V592.105L614.213 597.307V597.308L614.214 597.318C614.243 597.729 613.936 598.133 613.475 598.242L613.381 598.259L609.029 598.784L609.035 599.777L611.437 600.038C611.934 600.109 612.3 600.526 612.27 601.028L611.901 605.758V605.761C611.868 606.231 611.459 606.611 610.981 606.611H610.939C610.93 606.61 610.916 606.61 610.897 606.609C610.861 606.607 610.807 606.605 610.736 606.601C610.594 606.594 610.385 606.584 610.117 606.571C609.581 606.544 608.808 606.506 607.863 606.459C605.973 606.366 603.391 606.237 600.626 606.099C595.101 605.824 588.842 605.509 585.896 605.351H585.896C585.422 605.315 585.071 604.951 585.042 604.599L585.041 604.587L585.039 604.575L583.83 595.535V595.53L583.821 595.442C583.8 595.001 584.094 594.61 584.543 594.513L584.546 594.512L604.114 590.21C604.209 590.202 604.289 590.182 604.322 590.173C604.387 590.157 604.378 590.162 604.358 590.162Z" fill="white" stroke="#102C56"/>
<path d="M604.359 588.743C605.325 588.743 606.203 589.318 606.592 590.096L606.748 590.407L607.093 590.369L612.848 589.742H613.136C613.681 589.742 614.198 589.949 614.648 590.304C615.126 590.743 615.43 591.352 615.475 591.999V592L615.738 597.203C615.778 598.327 615.045 599.283 613.995 599.589L613.517 599.729L613.654 600.206C613.747 600.534 613.784 600.827 613.745 601.102L613.743 601.118L613.742 601.134L613.374 605.864V605.867C613.287 607.073 612.247 608.031 611.034 608.031H610.876L610.656 608.021C610.506 608.014 610.29 608.003 610.015 607.99C609.466 607.964 608.683 607.926 607.73 607.879C605.824 607.785 603.237 607.657 600.475 607.52C594.95 607.244 588.722 606.928 585.833 606.771L585.825 606.77C584.701 606.726 583.751 605.86 583.622 604.742L583.621 604.733L582.412 595.692L582.411 595.688L582.39 595.464C582.343 594.348 583.131 593.339 584.232 593.094L584.231 593.093L603.835 588.784L603.842 588.782L603.849 588.781C603.99 588.746 604.139 588.743 604.359 588.743ZM604.251 590.593L584.594 594.902L584.145 595.001L584.207 595.457L585.416 604.498L585.47 604.908L585.884 604.931C588.829 605.088 595.097 605.404 600.628 605.68C603.394 605.818 605.976 605.945 607.867 606.039C608.812 606.086 609.585 606.125 610.121 606.151C610.389 606.165 610.598 606.175 610.74 606.182C610.811 606.185 610.865 606.188 610.902 606.189C610.92 606.19 610.934 606.191 610.943 606.191C610.947 606.192 610.951 606.192 610.954 606.192H610.957L611.442 606.216L611.48 605.731L611.848 601.001L611.885 600.521L611.407 600.466L601.065 599.275L613.352 597.832L613.817 597.778L613.793 597.311L613.531 592.107L613.503 591.577L612.976 591.636L598.833 593.202L604.499 591.562L604.251 590.593Z" fill="#102C56" stroke="#102C56"/>
<path d="M585.051 400.965C585.132 400.935 585.218 400.936 585.292 400.964C585.358 400.99 585.44 401.047 585.506 401.183C587.096 404.898 587.699 408.899 587.854 412.949L587.88 413.76C587.88 415.164 587.828 416.619 587.724 418.021L587.723 418.025C587.689 418.528 587.254 418.907 586.731 418.873C586.238 418.84 585.848 418.36 585.882 417.882C586.198 413.765 586.254 409.626 585.669 405.531L585.667 405.522C585.456 404.201 585.19 402.768 584.871 401.437L584.868 401.424L584.864 401.411L584.843 401.31C584.832 401.22 584.851 401.156 584.874 401.114C584.908 401.05 584.969 400.995 585.051 400.965Z" fill="#102C56" stroke="#102C56"/>
<path d="M561.612 403.994C561.776 403.94 561.913 403.993 561.982 404.115L561.988 404.125C563.131 406.014 563.543 408.221 563.545 410.471C563.524 410.798 563.399 411.007 563.247 411.137C563.086 411.275 562.866 411.351 562.632 411.349C562.196 411.345 561.795 411.085 561.718 410.567L561.707 410.46C561.682 409.977 561.682 409.492 561.682 408.992C561.682 408.503 561.681 407.999 561.655 407.494C561.655 406.408 561.492 405.309 561.39 404.34L561.389 404.334L561.387 404.264C561.39 404.2 561.411 404.154 561.436 404.119C561.473 404.066 561.534 404.019 561.612 403.994Z" fill="#102C56" stroke="#102C56"/>
</svg>
