<svg width="21" height="21" viewBox="0 0 21 21" fill="none" xmlns="http://www.w3.org/2000/svg">
<path d="M20.9003 9.255L17.5253 0.48C17.5253 0.48 17.5253 0.4425 17.5253 0.42L17.4803 0.345C17.4444 0.294177 17.4043 0.246505 17.3603 0.2025L17.3003 0.15C17.2321 0.0983713 17.1562 0.0578695 17.0753 0.03H17.0153L16.8278 0H16.7378L3.98781 1.5H3.94281C3.8772 1.50851 3.81367 1.52884 3.75531 1.56L3.70281 1.6125C3.62953 1.65989 3.56379 1.71804 3.50781 1.785C3.46292 1.84142 3.42746 1.90474 3.40281 1.9725L0.0278126 10.7475C-0.00927086 10.8749 -0.00927086 11.0101 0.0278126 11.1375C0.0204165 11.1998 0.0204165 11.2627 0.0278126 11.325C0.0949804 12.3771 0.54324 13.3687 1.2887 14.1141C2.03416 14.8596 3.02572 15.3078 4.07781 15.375C5.14197 15.3257 6.15073 14.8864 6.91157 14.1407C7.67242 13.3951 8.13207 12.3954 8.20281 11.3325C8.21021 11.2702 8.21021 11.2073 8.20281 11.145C8.2399 11.0176 8.2399 10.8824 8.20281 10.755L5.20281 2.88L9.70281 2.34V19.5H7.45281C7.2539 19.5 7.06313 19.579 6.92248 19.7197C6.78183 19.8603 6.70281 20.0511 6.70281 20.25C6.70281 20.4489 6.78183 20.6397 6.92248 20.7803C7.06313 20.921 7.2539 21 7.45281 21H13.4528C13.6517 21 13.8425 20.921 13.9831 20.7803C14.1238 20.6397 14.2028 20.4489 14.2028 20.25C14.2028 20.0511 14.1238 19.8603 13.9831 19.7197C13.8425 19.579 13.6517 19.5 13.4528 19.5H11.2028V2.1675L15.7028 1.6425L12.7778 9.255C12.7407 9.38236 12.7407 9.51764 12.7778 9.645C12.7704 9.70728 12.7704 9.77022 12.7778 9.8325C12.8467 10.8833 13.2958 11.873 14.0411 12.6169C14.7863 13.3608 15.7769 13.808 16.8278 13.875C17.892 13.8257 18.9007 13.3864 19.6616 12.6407C20.4224 11.8951 20.8821 10.8954 20.9528 9.8325C20.9602 9.77022 20.9602 9.70728 20.9528 9.645C20.9731 9.51266 20.9549 9.37727 20.9003 9.255ZM19.1978 9H14.4578L16.8278 2.835L19.1978 9ZM4.07781 4.335L6.44781 10.5H1.70781L4.07781 4.335ZM4.07781 13.875C3.52839 13.8497 2.99998 13.6564 2.56404 13.321C2.1281 12.9857 1.80565 12.5246 1.64031 12H6.51531C6.34997 12.5246 6.02753 12.9857 5.59158 13.321C5.15564 13.6564 4.62723 13.8497 4.07781 13.875ZM16.8278 12.375C16.2784 12.3497 15.75 12.1564 15.314 11.821C14.8781 11.4857 14.5557 11.0246 14.3903 10.5H19.2653C19.1 11.0246 18.7775 11.4857 18.3416 11.821C17.9056 12.1564 17.3772 12.3497 16.8278 12.375Z" fill="currentColor"/>
</svg>
