<svg width="14" height="13" viewBox="0 0 14 13" fill="none" xmlns="http://www.w3.org/2000/svg">
<path d="M6.09527 0.346336C6.24495 -0.114319 6.89665 -0.114318 7.04633 0.346338L8.25466 4.06519C8.32159 4.2712 8.51357 4.41068 8.73018 4.41068H12.6404C13.1248 4.41068 13.3262 5.03048 12.9343 5.31519L9.77086 7.61356C9.59562 7.74088 9.52229 7.96657 9.58923 8.17258L10.7976 11.8914C10.9472 12.3521 10.42 12.7351 10.0281 12.4504L6.86469 10.1521C6.68945 10.0247 6.45215 10.0247 6.27691 10.1521L3.11347 12.4504C2.72161 12.7351 2.19437 12.3521 2.34405 11.8914L3.55237 8.17258C3.61931 7.96657 3.54598 7.74088 3.37074 7.61356L0.207296 5.31518C-0.184561 5.03048 0.0168287 4.41068 0.50119 4.41068H4.41142C4.62803 4.41068 4.82001 4.2712 4.88695 4.06519L6.09527 0.346336Z" fill="#F2910E"/>
</svg>
