<svg width="162" height="52" viewBox="0 0 162 52" fill="none" xmlns="http://www.w3.org/2000/svg">
<path d="M27.6575 4.79801C24.7 1.91272 20.7025 0.129676 16.25 0.129676C7.28001 0.129676 0 7.39153 0 16.3392C0 25.2868 7.28001 32.5487 16.25 32.5487C22.165 32.5487 27.365 29.3716 30.1925 24.6384C31.6225 22.2718 32.435 19.5162 32.5 16.5661C32.5 16.5013 32.5 16.404 32.5 16.3392V0C30.5175 1.32918 28.86 2.75561 27.6575 4.79801ZM25.935 17.409C25.415 22.2718 21.255 26.0649 16.25 26.0649C10.855 26.0649 6.50001 21.7207 6.50001 16.3392C6.50001 10.9576 10.855 6.61347 16.25 6.61347C20.41 6.61347 23.9525 9.20699 25.35 12.8703C25.7725 13.9402 26 15.1397 26 16.3392C26 16.6958 25.9675 17.0848 25.935 17.409Z" fill="#102C56"/>
<path d="M25.4472 39.0322C24.1147 42.8252 20.5072 45.516 16.2497 45.516C11.9922 45.516 8.38471 42.8252 7.05221 39.0322H0.324707C1.81971 46.4238 8.38471 51.9998 16.2497 51.9998C24.1147 51.9998 30.6797 46.4238 32.1747 39.0322H25.4472Z" fill="#102C56"/>
<path d="M73.6768 40.0049C72.1224 41.2912 70.3892 42.2824 68.4772 42.9785C66.5653 43.6595 64.5756 44 62.5082 44C60.9226 44 59.3915 43.7957 57.9148 43.3871C56.4536 42.9937 55.0857 42.4337 53.8111 41.7074C52.5365 40.9659 51.3706 40.0881 50.3136 39.0742C49.2566 38.0452 48.355 36.9102 47.6089 35.6693C46.8628 34.4133 46.2798 33.0665 45.8601 31.6288C45.456 30.1912 45.2539 28.7006 45.2539 27.1571C45.2539 25.6135 45.456 24.1305 45.8601 22.708C46.2798 21.2855 46.8628 19.9538 47.6089 18.7129C48.355 17.4569 49.2566 16.3219 50.3136 15.308C51.3706 14.2789 52.5365 13.4012 53.8111 12.6748C55.0857 11.9485 56.4536 11.3885 57.9148 10.9951C59.3915 10.5865 60.9226 10.3822 62.5082 10.3822C64.5756 10.3822 66.5653 10.7303 68.4772 11.4264C70.3892 12.1074 72.1224 13.091 73.6768 14.3773L70.1793 20.0521C69.1689 19.0534 68.0031 18.274 66.6818 17.7141C65.3606 17.1391 63.9693 16.8515 62.5082 16.8515C61.047 16.8515 59.6713 17.1239 58.3811 17.6687C57.1065 18.2135 55.9873 18.955 55.0236 19.8933C54.0598 20.8164 53.2981 21.9059 52.7385 23.162C52.1789 24.4029 51.8991 25.7346 51.8991 27.1571C51.8991 28.5947 52.1789 29.9415 52.7385 31.1975C53.2981 32.4536 54.0598 33.5507 55.0236 34.489C55.9873 35.4272 57.1065 36.1687 58.3811 36.7135C59.6713 37.2583 61.047 37.5307 62.5082 37.5307C63.3476 37.5307 64.1637 37.4323 64.9564 37.2356C65.7492 37.0389 66.5031 36.7665 67.2181 36.4184V27.1571H73.6768V40.0049Z" fill="#102C56"/>
<path d="M102.333 43.2963H100.794L98.3224 39.9595C97.7162 40.4892 97.0711 40.9885 96.3872 41.4577C95.7188 41.9117 95.0115 42.3127 94.2654 42.6607C93.5192 42.9937 92.7498 43.2585 91.957 43.4552C91.1798 43.6519 90.387 43.7503 89.5787 43.7503C87.8222 43.7503 86.1667 43.4628 84.6123 42.8877C83.0734 42.3127 81.721 41.4804 80.5552 40.3908C79.4049 39.2861 78.4956 37.9393 77.8272 36.3503C77.1588 34.7613 76.8246 32.953 76.8246 30.9252C76.8246 29.0335 77.1588 27.3008 77.8272 25.727C78.4956 24.138 79.4049 22.7761 80.5552 21.6411C81.721 20.5061 83.0734 19.6284 84.6123 19.008C86.1667 18.3724 87.8222 18.0546 89.5787 18.0546C90.387 18.0546 91.1876 18.153 91.9803 18.3497C92.7731 18.5464 93.5425 18.8188 94.2887 19.1669C95.0348 19.5149 95.7421 19.9235 96.4105 20.3926C97.0944 20.8618 97.7318 21.3687 98.3224 21.9135L100.794 19.0307H102.333V43.2963ZM95.9208 30.9252C95.9208 30.0777 95.7499 29.2605 95.4079 28.4736C95.0814 27.6716 94.6307 26.9679 94.0555 26.3626C93.4804 25.7421 92.8042 25.2503 92.027 24.8871C91.2653 24.5088 90.4492 24.3196 89.5787 24.3196C88.7082 24.3196 87.8844 24.4634 87.1072 24.7509C86.3455 25.0384 85.6771 25.4622 85.1019 26.0221C84.5423 26.582 84.0993 27.2781 83.7729 28.1104C83.4465 28.9276 83.2832 29.8658 83.2832 30.9252C83.2832 31.9845 83.4465 32.9303 83.7729 33.7626C84.0993 34.5798 84.5423 35.2683 85.1019 35.8282C85.6771 36.3881 86.3455 36.8119 87.1072 37.0994C87.8844 37.3869 88.7082 37.5307 89.5787 37.5307C90.4492 37.5307 91.2653 37.3491 92.027 36.9859C92.8042 36.6076 93.4804 36.1157 94.0555 35.5104C94.6307 34.89 95.0814 34.1863 95.4079 33.3994C95.7499 32.5973 95.9208 31.7726 95.9208 30.9252Z" fill="#102C56"/>
<path d="M113.618 43.2963H107.206V9.31534H113.618V43.2963Z" fill="#102C56"/>
<path d="M128.424 37.3491C128.673 37.4247 128.922 37.4777 129.17 37.508C129.419 37.5231 129.668 37.5307 129.916 37.5307C130.538 37.5307 131.137 37.4474 131.712 37.281C132.287 37.1145 132.823 36.88 133.321 36.5773C133.834 36.2595 134.284 35.8812 134.673 35.4423C135.077 34.9883 135.404 34.489 135.652 33.9442L140.316 38.5067C139.725 39.3239 139.041 40.0579 138.264 40.7086C137.502 41.3593 136.67 41.9117 135.769 42.3656C134.883 42.8196 133.942 43.1601 132.948 43.3871C131.968 43.6292 130.958 43.7503 129.916 43.7503C128.16 43.7503 126.504 43.4325 124.95 42.7969C123.411 42.1614 122.059 41.2761 120.893 40.1411C119.743 39.0061 118.833 37.6593 118.165 36.1006C117.496 34.5268 117.162 32.8016 117.162 30.9252C117.162 29.0033 117.496 27.2479 118.165 25.6589C118.833 24.0699 119.743 22.7155 120.893 21.5957C122.059 20.4759 123.411 19.6057 124.95 18.9853C126.504 18.3648 128.16 18.0546 129.916 18.0546C130.958 18.0546 131.976 18.1757 132.971 18.4178C133.966 18.6599 134.906 19.008 135.792 19.462C136.694 19.916 137.533 20.4759 138.31 21.1417C139.088 21.7924 139.772 22.5264 140.362 23.3436L128.424 37.3491ZM131.688 24.5693C131.393 24.4634 131.098 24.3953 130.802 24.365C130.523 24.3348 130.227 24.3196 129.916 24.3196C129.046 24.3196 128.222 24.4785 127.445 24.7963C126.683 25.099 126.015 25.5378 125.44 26.1129C124.88 26.6879 124.437 27.384 124.111 28.2012C123.784 29.0033 123.621 29.9112 123.621 30.9252C123.621 31.1521 123.629 31.4094 123.644 31.6969C123.675 31.9845 123.714 32.2795 123.761 32.5822C123.823 32.8697 123.893 33.1497 123.971 33.4221C124.048 33.6945 124.149 33.9366 124.274 34.1485L131.688 24.5693Z" fill="#102C56"/>
<path d="M151.671 43.2963H145.305V25.1595H142.204V18.9853H145.305V17.8276C145.305 16.3294 145.593 14.9221 146.168 13.6055C146.759 12.289 147.559 11.1464 148.57 10.1779C149.596 9.19427 150.785 8.42249 152.137 7.86258C153.489 7.28753 154.935 7 156.474 7H161.254V13.1742H156.474C155.79 13.1742 155.153 13.2953 154.562 13.5374C153.987 13.7644 153.482 14.0898 153.046 14.5135C152.627 14.9221 152.293 15.4139 152.044 15.989C151.795 16.5489 151.671 17.1618 151.671 17.8276V18.9853H159.482V25.1595H151.671V43.2963Z" fill="#102C56"/>
</svg>
